<?xml version="1.0" standalone="no"?>
<!DOCTYPE svg PUBLIC "-//W3C//DTD SVG 20010904//EN"
 "http://www.w3.org/TR/2001/REC-SVG-20010904/DTD/svg10.dtd">
<svg version="1.0" xmlns="http://www.w3.org/2000/svg"
 width="362.000000pt" height="162.000000pt" viewBox="0 0 362.000000 162.000000"
 preserveAspectRatio="xMidYMid meet">

<g transform="translate(0.000000,162.000000) scale(0.100000,-0.100000)"
fill="#000000" stroke="none">
<path d="M710 1534 c0 -31 5 -74 11 -95 12 -37 11 -39 -35 -91 -29 -32 -73
-104 -112 -184 -53 -106 -66 -142 -69 -190 -2 -32 -2 -50 1 -39 43 154 125
318 199 398 l44 48 40 -43 40 -43 30 29 c24 23 28 32 19 46 -6 10 -8 32 -4 54
6 32 14 40 65 65 91 47 168 62 302 62 171 -1 294 -32 422 -108 52 -31 56 -37
51 -61 -8 -33 -36 -82 -46 -82 -4 0 -8 -5 -8 -10 0 -16 49 -90 59 -90 5 0 34
24 65 53 l57 53 23 -30 c41 -56 74 -119 145 -281 38 -88 89 -203 114 -255 70
-148 89 -230 70 -300 -5 -19 -9 -11 -19 40 -17 81 -42 150 -56 150 -6 0 -7 -8
-3 -18 29 -75 23 -182 -13 -229 -16 -22 -17 -18 -17 100 0 101 -4 133 -23 187
-24 70 -38 97 -46 90 -2 -3 7 -39 20 -80 34 -101 42 -218 21 -291 -16 -55 -50
-109 -68 -109 -5 0 -9 28 -9 61 0 72 -20 189 -32 189 -4 0 -8 -24 -8 -52 0
-78 -18 -128 -60 -170 -21 -21 -42 -38 -47 -38 -6 0 -4 22 5 53 39 141 44 179
33 268 -13 100 -37 189 -52 189 -6 0 -9 -6 -6 -13 23 -60 39 -179 35 -265 -3
-86 -7 -104 -33 -150 -17 -30 -45 -62 -65 -74 l-35 -22 23 25 c32 36 27 45 -9
15 -29 -25 -49 -33 -49 -20 0 3 14 38 32 77 17 40 37 95 44 122 16 59 19 149
4 140 -5 -3 -10 -23 -10 -45 0 -91 -66 -238 -122 -269 -38 -22 -45 -7 -15 28
27 33 64 118 54 127 -3 3 -18 -18 -32 -48 -29 -56 -67 -103 -100 -120 -19 -11
-19 -10 -2 13 72 101 108 219 114 382 5 118 7 127 25 127 23 0 25 -12 -23 170
-32 124 -49 166 -49 121 0 -24 43 -203 60 -245 5 -14 7 -26 4 -26 -16 0 -65
34 -88 61 -48 56 -75 119 -100 232 -12 50 -24 19 -14 -35 13 -74 45 -165 75
-216 13 -24 23 -46 20 -49 -10 -10 -66 28 -101 68 -38 45 -71 122 -88 207 -6
28 -15 52 -21 52 -14 0 2 -165 24 -235 10 -33 19 -61 19 -62 0 -10 -40 0 -66
16 -39 24 -69 72 -85 136 -19 82 -32 79 -26 -5 4 -58 3 -68 -5 -45 -5 17 -11
85 -11 152 -1 68 -5 123 -9 123 -15 0 -21 -120 -9 -210 12 -102 44 -183 73
-188 15 -3 16 1 7 30 -14 49 -11 54 12 24 11 -14 34 -33 50 -41 18 -10 26 -20
23 -30 -5 -13 -2 -14 21 -5 40 15 65 11 28 -5 -36 -16 -63 -60 -63 -105 0
-111 133 -161 209 -79 26 28 28 94 5 127 -21 30 -3 28 26 -3 24 -26 50 -33 50
-14 0 6 -14 24 -31 40 -28 26 -29 29 -10 29 25 0 26 8 4 40 l-17 25 25 -20
c38 -31 39 -35 39 -130 0 -96 -30 -253 -55 -291 -21 -33 -63 -37 -178 -21 -56
9 -135 18 -176 21 -54 5 -78 11 -87 24 -12 16 -15 16 -46 0 -23 -12 -72 -18
-170 -23 l-137 -7 -26 28 c-34 37 -36 48 -33 204 3 126 4 135 22 135 14 0 30
20 56 68 l37 67 11 -36 c10 -35 9 -37 -29 -73 -24 -24 -39 -47 -39 -62 0 -23
1 -23 19 7 23 37 79 74 112 73 20 -1 19 -2 -8 -10 -24 -7 -39 -21 -53 -49 -29
-58 -26 -105 9 -141 59 -58 152 -28 171 55 16 73 -5 117 -66 136 -23 8 -20 8
16 4 43 -6 44 -5 28 11 -9 10 -34 21 -55 24 -32 5 -38 10 -41 34 -3 24 0 27
25 27 22 0 36 -10 63 -47 35 -48 80 -73 66 -38 -3 9 -9 28 -12 41 -6 22 -4 22
28 -10 37 -37 101 -61 127 -46 13 7 10 10 -14 15 -82 17 -121 54 -147 138 -19
62 -32 44 -24 -35 6 -64 5 -71 -8 -53 -42 61 -60 212 -35 310 16 64 5 77 -20
22 -30 -69 -62 -200 -70 -287 -7 -70 -8 -73 -19 -47 -7 16 -12 55 -12 88 0 32
-4 59 -8 59 -5 0 -16 -28 -26 -62 -19 -69 -61 -148 -78 -148 -7 0 -9 35 -6
113 4 87 11 130 32 191 30 89 29 124 -3 55 -34 -76 -51 -159 -51 -254 0 -67
-6 -109 -24 -165 -33 -104 -56 -219 -56 -284 0 -55 24 -136 40 -136 5 0 11
-10 15 -22 3 -13 13 -39 21 -58 l15 -36 -41 -44 c-48 -51 -117 -180 -98 -180
7 0 26 26 41 58 15 33 48 78 73 103 l44 43 55 -55 c79 -81 232 -149 333 -149
73 0 349 84 485 148 l98 45 37 -17 c67 -32 129 -85 153 -131 l24 -45 212 0
c173 0 213 3 213 14 0 7 -16 45 -35 84 -43 85 -121 167 -197 207 l-55 29 28
23 c15 13 34 43 42 66 l15 42 1 -48 c1 -57 16 -59 44 -6 14 26 17 50 14 104
-4 75 -21 122 -137 375 -34 74 -77 171 -97 215 -19 44 -57 113 -83 152 l-48
73 20 40 c26 53 30 143 6 148 -11 2 -28 -15 -53 -54 l-36 -56 -17 33 c-21 40
-41 49 -49 20 -3 -12 -7 -21 -8 -21 -1 0 -28 15 -58 33 -122 74 -317 115 -482
103 -88 -7 -216 -42 -262 -72 -23 -14 -23 -14 -23 26 0 49 -20 53 -52 10 -12
-16 -25 -30 -29 -30 -3 0 -18 18 -33 40 -16 24 -34 40 -46 40 -18 0 -20 -7
-20 -56z m63 -19 c27 -43 57 -60 57 -32 0 6 10 23 21 37 l21 25 -7 -35 c-4
-19 -9 -64 -11 -99 -1 -35 -7 -68 -13 -74 -14 -14 -45 15 -78 70 -24 42 -44
153 -27 153 5 0 22 -20 37 -45z m1102 -62 c-11 -61 -47 -125 -97 -175 -26 -27
-51 -48 -56 -48 -5 0 -14 11 -22 24 -11 21 -10 29 10 60 12 20 25 57 29 84 l8
47 13 -33 c17 -45 38 -38 75 25 35 62 50 67 40 16z m-922 -440 c6 -73 6 -73
-19 -73 -19 0 -24 4 -21 18 3 9 8 35 12 57 7 46 16 78 20 73 1 -2 5 -36 8 -75z
m441 -69 c3 -8 2 -12 -4 -9 -6 3 -10 10 -10 16 0 14 7 11 14 -7z m50 -93 c-19
-3 -44 23 -44 48 0 10 10 5 31 -15 26 -24 28 -30 13 -33z m-464 -87 c0 -17
-22 -14 -28 4 -2 7 3 12 12 12 9 0 16 -7 16 -16z m510 -19 c0 -8 -4 -15 -10
-15 -5 0 -10 7 -10 15 0 8 5 15 10 15 6 0 10 -7 10 -15z m-795 -134 c-7 -75 3
-125 36 -172 17 -25 18 -27 2 -33 -21 -8 -33 10 -33 52 0 17 -5 32 -11 32 -8
0 -10 -19 -6 -62 5 -52 4 -60 -6 -43 -15 26 -15 162 2 238 7 31 15 57 18 57 3
0 2 -31 -2 -69z m1262 -243 c-3 -8 -6 -5 -6 6 -1 11 2 17 5 13 3 -3 4 -12 1
-19z"/>
<path d="M2700 1445 c-203 -41 -336 -131 -404 -275 -29 -60 -31 -73 -31 -175
0 -102 2 -114 29 -168 41 -80 126 -158 227 -207 46 -22 89 -40 96 -40 18 0 17
-5 -13 -50 -44 -66 -5 -78 78 -23 39 27 40 27 251 28 205 1 215 2 292 28 193
67 303 170 341 317 22 86 13 156 -31 245 -77 159 -246 274 -467 319 -93 19
-276 20 -368 1z m412 -34 c176 -46 330 -155 398 -283 29 -54 35 -75 38 -149 4
-78 2 -92 -23 -148 -51 -113 -183 -212 -340 -256 -72 -20 -315 -31 -397 -18
-54 9 -59 8 -109 -24 -29 -18 -54 -31 -56 -29 -2 2 5 21 16 42 22 41 20 54 -9
54 -10 0 -58 20 -107 45 -104 52 -170 115 -211 203 -23 49 -27 70 -27 152 0
87 3 101 32 160 35 72 94 138 163 182 50 32 176 75 260 88 88 14 284 4 372
-19z"/>
<path d="M3330 1000 c0 -60 4 -100 10 -100 6 0 10 14 10 30 0 17 4 30 10 30 5
0 16 -13 25 -30 16 -31 35 -40 35 -17 0 6 -9 26 -19 44 -20 32 -20 32 1 58 29
37 14 44 -22 10 l-30 -29 0 52 c0 29 -4 52 -10 52 -6 0 -10 -40 -10 -100z"/>
<path d="M3004 1078 c-11 -17 -5 -137 7 -159 11 -21 44 -25 54 -8 4 6 -2 13
-14 16 -18 4 -21 13 -21 54 0 37 4 49 15 49 8 0 15 5 15 10 0 6 -7 10 -15 10
-8 0 -15 9 -15 20 0 22 -15 27 -26 8z"/>
<path d="M2376 1028 c-34 -48 -7 -128 43 -128 44 0 73 68 49 117 -18 38 -69
44 -92 11z m64 -24 c13 -34 2 -74 -20 -74 -29 0 -42 64 -18 88 18 18 27 15 38
-14z"/>
<path d="M2500 954 c0 -77 3 -94 15 -94 9 0 15 10 15 26 0 21 3 24 21 19 32
-10 59 21 59 67 0 62 -13 77 -65 76 l-45 -1 0 -93z m78 17 c-2 -28 -7 -36 -23
-36 -15 0 -21 8 -23 33 -2 18 2 40 9 48 19 23 41 -3 37 -45z"/>
<path d="M2649 1034 c-20 -24 -17 -89 5 -113 19 -21 41 -26 70 -15 26 10 18
23 -16 26 -22 2 -34 9 -36 21 -3 14 4 17 32 17 30 0 36 4 36 21 0 54 -59 81
-91 43z m59 -27 c2 -12 -3 -17 -17 -17 -12 0 -21 6 -21 13 0 31 32 34 38 4z"/>
<path d="M2770 973 c0 -55 3 -74 13 -71 7 3 14 29 17 64 4 44 9 59 20 59 11 0
16 -15 20 -58 6 -73 24 -74 28 -1 4 68 -8 84 -59 82 l-39 -1 0 -74z"/>
<path d="M2900 1031 c-13 -25 -5 -46 26 -66 33 -21 30 -35 -6 -35 -32 0 -40
-14 -14 -24 25 -10 42 -7 58 10 23 23 20 41 -14 70 -31 28 -31 49 1 39 13 -4
19 -2 19 9 0 24 -57 21 -70 -3z"/>
<path d="M3100 1036 c0 -10 9 -14 28 -13 37 3 37 -27 -1 -31 -18 -2 -32 -12
-39 -28 -10 -21 -8 -28 10 -47 19 -18 25 -20 42 -10 12 8 21 9 25 3 22 -36 36
80 15 121 -13 24 -80 28 -80 5z m60 -81 c0 -9 -7 -18 -16 -22 -18 -7 -39 11
-30 26 11 17 46 13 46 -4z"/>
<path d="M3227 1032 c-39 -43 -6 -138 45 -130 31 4 35 28 5 28 -26 0 -37 16
-37 55 0 25 26 46 48 38 6 -3 12 2 12 11 0 23 -53 21 -73 -2z"/>
<path d="M574 1001 c-11 -18 -57 -86 -102 -150 -95 -132 -123 -183 -147 -265
-19 -66 -14 -115 15 -141 11 -10 20 -23 20 -30 0 -6 6 -20 14 -30 12 -17 13
-10 9 51 -4 65 -2 74 37 153 43 90 59 104 34 31 -20 -57 -22 -177 -5 -210 19
-35 52 -70 67 -70 10 0 12 14 7 53 l-5 52 26 -50 c14 -28 39 -58 55 -68 31
-18 81 -23 81 -8 0 16 -27 31 -44 25 -10 -4 -25 1 -37 12 -38 34 -53 76 -53
147 0 37 -3 67 -7 67 -12 0 -34 -94 -34 -147 0 -48 -1 -50 -17 -36 -58 52 -29
254 55 376 35 51 7 42 -43 -13 -54 -59 -140 -217 -140 -255 0 -39 -18 -38 -26
0 -12 68 42 190 149 335 79 106 120 176 114 192 -2 8 -12 -1 -23 -21z"/>
<path d="M1710 1016 c0 -7 18 -50 40 -94 43 -85 76 -118 129 -128 27 -6 31 -4
31 14 0 28 -10 52 -22 52 -6 0 -8 -9 -5 -20 3 -13 0 -20 -9 -20 -28 0 -85 64
-120 136 -38 76 -44 84 -44 60z"/>
<path d="M688 25 c-6 -28 6 -34 16 -9 8 22 7 34 -3 34 -5 0 -11 -11 -13 -25z"/>
<path d="M1810 10 c-12 -8 -11 -10 7 -10 12 0 25 5 28 10 8 13 -15 13 -35 0z"/>
</g>
</svg>
