<?xml version="1.0" standalone="no"?>
<!DOCTYPE svg PUBLIC "-//W3C//DTD SVG 20010904//EN"
 "http://www.w3.org/TR/2001/REC-SVG-20010904/DTD/svg10.dtd">
<svg version="1.0" xmlns="http://www.w3.org/2000/svg"
 width="461.000000pt" height="308.000000pt" viewBox="0 0 461.000000 308.000000"
 preserveAspectRatio="xMidYMid meet">

<g transform="translate(0.000000,308.000000) scale(0.100000,-0.100000)"
fill="#000000" stroke="none">
<path d="M1054 2834 c-8 -33 1 -123 17 -169 13 -34 12 -36 -22 -73 -20 -20
-49 -55 -66 -77 -39 -51 -136 -244 -163 -324 -21 -64 -27 -141 -10 -141 6 0
10 17 10 38 1 89 133 359 226 460 l52 57 51 -49 51 -50 29 28 c27 26 29 31 24
87 -7 69 0 80 67 114 130 66 278 90 463 75 139 -12 236 -38 353 -96 118 -58
131 -71 115 -124 -6 -21 -23 -52 -36 -69 l-25 -29 31 -51 c18 -28 34 -51 36
-51 13 0 96 65 121 96 l29 35 36 -48 c41 -56 106 -183 167 -328 24 -55 76
-170 116 -257 105 -225 130 -322 107 -408 -5 -19 -11 -5 -28 65 -25 100 -55
176 -62 158 -2 -6 0 -29 6 -50 26 -94 5 -223 -44 -263 -17 -14 -18 -13 -11 10
17 58 18 205 2 275 -21 89 -56 185 -67 185 -13 0 -11 -11 7 -61 65 -183 60
-393 -12 -478 -39 -47 -51 -41 -46 24 5 59 -25 245 -40 245 -4 0 -8 -29 -8
-65 0 -72 -21 -145 -55 -190 -22 -30 -71 -63 -79 -54 -3 2 4 36 15 74 10 39
24 92 30 120 16 68 5 233 -21 324 -24 84 -28 93 -39 87 -4 -3 0 -37 10 -75 10
-39 23 -107 29 -152 20 -145 -16 -286 -91 -354 -45 -40 -74 -48 -39 -10 35 37
16 42 -25 6 -20 -17 -40 -31 -45 -31 -8 0 13 59 58 162 24 54 52 180 52 233 0
62 -17 37 -29 -42 -24 -163 -78 -275 -152 -311 -23 -12 -45 -19 -47 -17 -3 2
8 18 22 36 39 46 78 127 74 152 -3 17 -12 6 -36 -44 -19 -39 -51 -84 -77 -108
-47 -43 -83 -57 -48 -18 31 34 90 157 114 239 16 54 23 112 26 221 5 147 6
147 29 147 30 0 31 17 5 90 -11 30 -32 108 -48 173 -28 118 -51 158 -39 68 4
-27 22 -105 40 -173 19 -67 32 -125 30 -128 -13 -12 -83 42 -120 93 -47 64
-80 142 -97 230 -13 72 -32 76 -24 5 8 -75 61 -234 96 -291 33 -51 25 -60 -28
-33 -86 45 -160 183 -186 349 -3 20 -10 37 -15 37 -22 0 -1 -216 30 -304 11
-32 17 -62 14 -67 -7 -12 -73 17 -102 44 -36 34 -66 100 -86 190 -4 15 -11 27
-17 27 -6 0 -8 -28 -5 -77 5 -65 4 -72 -5 -43 -6 19 -12 99 -12 178 -1 78 -5
142 -9 142 -26 0 -21 -277 7 -370 17 -56 58 -120 77 -120 10 0 5 49 -9 88 -4
9 12 -2 34 -25 23 -22 51 -44 63 -48 17 -5 19 -9 9 -21 -11 -13 -5 -14 42 -9
54 6 54 6 22 -9 -95 -44 -97 -202 -4 -251 17 -8 49 -15 73 -15 109 0 169 107
111 198 -23 36 -10 35 34 -3 47 -40 53 -42 53 -16 0 10 -16 33 -35 50 -30 26
-32 31 -16 31 27 0 36 18 19 38 -32 37 -30 44 5 17 31 -25 37 -37 43 -84 12
-97 -8 -255 -47 -378 -20 -60 -22 -63 -62 -74 -33 -9 -65 -8 -152 6 -60 9
-156 20 -213 23 -87 4 -104 8 -113 23 -13 24 -44 24 -68 0 -17 -17 -38 -19
-190 -22 -169 -3 -170 -3 -196 21 -55 51 -63 106 -48 323 5 87 8 97 24 92 21
-7 48 25 85 102 l27 55 17 -43 16 -44 -38 -27 c-41 -31 -58 -56 -58 -89 0 -19
3 -18 23 12 47 70 127 101 205 80 25 -6 47 -9 51 -5 11 11 -41 44 -80 50 -34
6 -39 10 -39 34 0 34 4 37 40 32 22 -3 36 -15 54 -47 25 -41 72 -82 83 -71 4
3 1 23 -5 45 -17 56 -15 60 14 23 32 -41 92 -72 139 -72 51 0 43 17 -12 25
-64 9 -123 68 -148 145 -29 91 -38 85 -32 -20 4 -82 3 -92 -9 -75 -55 75 -75
226 -49 358 10 48 15 91 11 94 -10 11 -56 -102 -82 -204 -14 -54 -29 -138 -33
-188 l-7 -90 -18 39 c-13 28 -17 58 -14 108 2 37 -1 67 -6 65 -5 -2 -20 -39
-35 -83 -32 -98 -79 -180 -93 -166 -7 7 -9 57 -6 139 5 123 24 207 72 316 5
11 4 17 -3 17 -15 0 -55 -86 -76 -165 -10 -34 -19 -114 -21 -185 -3 -70 -11
-143 -18 -165 -35 -99 -67 -247 -72 -330 -7 -104 5 -162 41 -201 14 -15 25
-34 25 -42 0 -9 9 -35 21 -59 l21 -44 -57 -59 c-45 -48 -71 -90 -130 -213
-101 -211 -205 -445 -205 -461 0 -8 21 -37 46 -65 l47 -52 -47 -172 c-25 -95
-46 -178 -46 -185 0 -16 20 -16 24 0 2 7 23 88 46 180 l42 166 30 -10 c16 -6
32 -16 34 -22 3 -7 -9 -73 -26 -148 -31 -142 -36 -178 -21 -178 4 0 16 39 25
88 10 48 44 193 76 322 50 198 103 434 127 567 3 19 1 33 -4 33 -5 0 -21 -46
-34 -103 l-23 -102 -10 62 c-5 35 -13 63 -19 63 -5 0 -7 -18 -4 -42 21 -154
20 -167 -22 -343 -23 -94 -43 -176 -46 -183 -9 -26 -126 52 -156 105 -17 28
-16 30 70 218 137 299 186 392 236 451 26 30 51 54 57 54 6 0 41 -29 79 -64
118 -111 271 -171 418 -164 124 7 424 98 584 179 44 21 86 39 93 39 22 0 104
-44 148 -79 57 -46 82 -85 110 -170 24 -75 166 -608 166 -624 0 -9 -92 -52
-133 -61 -26 -6 -28 -5 -25 21 3 27 5 28 66 31 36 2 62 7 62 14 0 18 -211 2
-340 -25 -63 -13 -143 -35 -177 -49 -41 -17 -63 -21 -66 -14 -7 22 11 218 28
292 9 41 29 96 44 122 16 26 48 81 72 122 49 86 113 158 164 186 36 19 45 34
22 34 -21 0 -88 -52 -133 -102 -22 -25 -61 -83 -88 -129 -26 -46 -45 -75 -42
-64 3 11 12 49 21 85 9 36 23 86 31 113 19 59 12 85 -10 35 -18 -42 -88 -318
-107 -420 -7 -38 -16 -68 -20 -68 -8 0 -24 70 -44 192 -17 106 -29 112 -21 12
6 -84 39 -231 55 -247 5 -5 6 -48 3 -95 -5 -99 0 -110 61 -114 l37 -2 0 -88
c0 -72 3 -88 15 -88 12 0 15 19 15 114 l0 114 63 15 c100 25 239 49 252 43 9
-3 15 -47 20 -145 5 -103 11 -141 20 -141 10 0 11 25 7 109 l-5 109 34 7 c19
4 58 18 87 32 63 29 63 35 26 173 -64 240 -134 514 -131 517 10 10 100 -104
131 -166 33 -65 66 -93 66 -56 0 17 16 20 25 5 10 -17 25 -11 36 13 8 18 17
23 35 19 19 -3 26 0 31 17 4 16 11 19 29 15 19 -5 24 -1 30 20 4 16 13 26 24
26 10 0 21 8 24 18 4 11 15 18 29 18 32 -1 34 47 4 133 -46 131 -152 252 -277
317 -36 18 -58 33 -49 34 25 0 60 45 80 102 19 54 24 47 20 -29 -1 -24 3 -33
13 -33 22 0 43 37 56 98 18 82 -5 172 -90 354 -40 84 -97 212 -127 283 -73
172 -132 288 -181 355 l-39 54 25 54 c38 85 43 182 7 182 -15 0 -28 -16 -77
-95 l-30 -49 -21 39 c-29 58 -57 69 -57 24 0 -26 -8 -25 -86 21 -88 50 -229
97 -335 111 -46 7 -141 9 -213 6 -138 -5 -221 -24 -318 -73 l-48 -24 0 45 c0
38 -3 45 -20 45 -12 0 -32 -16 -49 -40 l-29 -40 -31 49 c-43 67 -76 80 -87 35z
m83 -78 c18 -25 36 -46 40 -46 5 0 18 18 31 40 12 22 26 40 31 40 5 0 2 -35
-6 -77 -8 -43 -12 -92 -10 -110 6 -35 -11 -57 -37 -47 -21 8 -80 91 -95 133
-6 19 -11 59 -11 90 1 62 -3 63 57 -23z m1279 -161 c-35 -70 -120 -165 -148
-165 -17 0 -50 58 -37 65 18 12 49 85 57 137 l9 53 12 -30 c21 -50 31 -58 53
-38 10 9 33 42 51 72 l32 56 3 -39 c3 -29 -6 -58 -32 -111z m-1061 -497 c6
-15 2 -18 -25 -18 -33 0 -33 0 -27 43 3 23 12 67 19 97 l12 55 7 -80 c4 -44
10 -88 14 -97z m525 -31 c0 -5 -4 -5 -10 -2 -5 3 -10 14 -10 23 0 15 2 15 10
2 5 -8 10 -19 10 -23z m44 -62 c25 -32 25 -35 8 -35 -22 0 -36 15 -46 48 -11
33 8 27 38 -13z m70 -153 c8 -13 -11 -35 -23 -28 -16 10 -14 36 3 36 8 0 17
-4 20 -8z m-956 -189 c-2 -113 7 -148 54 -199 19 -21 19 -21 -9 -27 -15 -3
-30 -3 -32 -1 -2 2 -6 26 -9 54 -2 27 -8 50 -13 50 -17 0 -20 -47 -6 -88 16
-46 4 -70 -13 -27 -15 40 -12 186 7 270 9 41 18 75 20 75 1 0 2 -48 1 -107z
m507 -193 c3 -5 -1 -10 -10 -10 -9 0 -13 5 -10 10 3 6 8 10 10 10 2 0 7 -4 10
-10z m1002 -82 c-3 -7 -5 -2 -5 12 0 14 2 19 5 13 2 -7 2 -19 0 -25z"/>
<path d="M3453 2685 c-173 -31 -298 -90 -393 -185 -162 -162 -197 -404 -87
-593 44 -74 147 -162 250 -212 51 -25 101 -45 110 -45 23 0 21 -18 -8 -65 -14
-22 -25 -46 -25 -52 0 -25 55 -12 115 27 l62 41 119 -12 c433 -41 790 118 874
388 94 306 -164 617 -585 704 -107 22 -321 24 -432 4z m451 -35 c235 -52 429
-188 514 -359 36 -73 37 -78 37 -185 0 -100 -3 -116 -27 -166 -77 -158 -258
-275 -483 -314 -104 -18 -295 -21 -396 -5 l-70 11 -65 -43 c-35 -23 -67 -40
-69 -37 -3 3 7 26 21 52 14 26 24 50 21 53 -4 3 -34 15 -69 27 -304 103 -448
357 -353 626 37 104 132 209 244 269 67 36 208 77 306 90 98 14 284 4 389 -19z"/>
<path d="M4190 2155 c0 -96 3 -115 15 -115 10 0 15 10 15 29 0 44 18 47 37 7
10 -22 24 -36 35 -36 18 0 17 4 -9 49 l-27 50 20 23 c33 37 37 48 17 48 -10 0
-27 -14 -38 -30 -11 -16 -23 -30 -27 -30 -5 0 -8 27 -8 60 0 47 -3 60 -15 60
-12 0 -15 -19 -15 -115z"/>
<path d="M3800 2231 c0 -11 -6 -21 -12 -24 -10 -4 -10 -7 0 -18 6 -7 12 -36
12 -64 0 -59 22 -98 53 -93 28 4 33 24 7 31 -17 4 -20 13 -20 61 0 43 3 56 15
56 8 0 15 7 15 15 0 8 -7 15 -15 15 -8 0 -15 9 -15 20 0 13 -7 20 -20 20 -13
0 -20 -7 -20 -19z"/>
<path d="M3057 2193 c-24 -27 -30 -68 -17 -108 20 -60 74 -74 110 -27 18 21
21 36 17 74 -2 26 -10 54 -17 63 -17 20 -73 19 -93 -2z m73 -38 c12 -31 2 -85
-17 -92 -33 -13 -56 51 -37 101 10 25 43 19 54 -9z"/>
<path d="M3200 2093 c0 -94 3 -113 15 -113 11 0 15 11 15 35 0 33 2 35 20 25
12 -6 30 -8 41 -5 28 9 52 70 45 110 -9 47 -33 64 -88 63 l-48 -1 0 -114z m88
75 c18 -18 15 -74 -5 -93 -16 -16 -18 -16 -35 5 -21 25 -22 38 -8 74 10 28 29
33 48 14z"/>
<path d="M3386 2194 c-39 -38 -30 -128 15 -153 30 -17 79 -8 79 14 0 11 -7 14
-25 9 -27 -7 -55 10 -55 32 0 10 13 14 45 14 43 0 45 2 45 28 0 61 -65 96
-104 56z m67 -35 c4 -15 0 -19 -24 -19 -30 0 -38 17 -18 37 15 15 36 6 42 -18z"/>
<path d="M3520 2123 c0 -67 3 -83 15 -83 11 0 15 13 15 53 0 59 18 94 44 84
12 -5 16 -20 16 -72 0 -51 3 -65 15 -65 12 0 15 15 15 74 0 47 -5 77 -12 84
-7 6 -34 10 -60 10 l-48 -1 0 -84z"/>
<path d="M3686 2194 c-24 -24 -19 -43 20 -79 41 -38 38 -60 -7 -50 -22 5 -29
3 -29 -8 0 -30 58 -36 83 -9 26 28 21 59 -13 84 -37 27 -39 48 -5 48 16 0 25
6 25 15 0 20 -54 20 -74 -1z"/>
<path d="M3923 2202 c-19 -12 -1 -27 32 -27 20 0 31 -5 33 -17 3 -14 -3 -18
-27 -18 -36 0 -61 -23 -61 -55 0 -28 42 -61 62 -49 7 4 25 7 40 6 l28 -2 -6
72 c-4 40 -11 79 -17 86 -10 13 -65 16 -84 4z m67 -101 c0 -28 -26 -47 -45
-31 -11 9 -12 17 -4 31 13 25 49 25 49 0z"/>
<path d="M4084 2203 c-41 -29 -46 -112 -9 -149 30 -30 78 -30 83 -1 3 14 -1
17 -20 12 -39 -10 -60 30 -45 88 6 22 13 27 38 27 20 0 29 4 27 13 -5 14 -58
21 -74 10z"/>
<path d="M880 2136 c-17 -30 -68 -106 -114 -169 -99 -134 -137 -200 -165 -284
-29 -86 -28 -153 3 -190 13 -15 26 -38 30 -50 4 -11 14 -27 22 -34 13 -11 14
-9 7 17 -19 69 -7 134 47 242 28 57 53 102 55 100 2 -2 -4 -31 -14 -63 -44
-141 -35 -253 24 -312 36 -36 70 -45 61 -15 -12 42 -18 92 -10 92 5 -1 20 -24
33 -51 27 -59 69 -89 124 -89 41 0 46 9 18 34 -17 16 -20 16 -28 2 -8 -14 -12
-13 -40 4 -53 32 -77 91 -77 188 0 45 -3 82 -7 82 -12 0 -41 -123 -42 -182 -1
-32 -5 -58 -10 -58 -4 0 -17 19 -27 43 -42 91 -16 246 66 396 19 35 33 66 30
69 -7 6 -91 -86 -130 -142 -41 -58 -94 -176 -102 -225 -8 -50 -21 -53 -30 -5
-18 95 39 224 191 429 84 113 140 211 126 219 -5 4 -23 -18 -41 -48z"/>
<path d="M2250 2178 c1 -24 57 -144 88 -190 31 -45 97 -88 135 -88 20 0 23 40
6 71 -13 26 -28 16 -21 -16 5 -30 -1 -31 -44 -4 -41 25 -85 86 -124 174 -28
63 -40 79 -40 53z"/>
<path d="M1270 1927 c-37 -19 -70 -84 -70 -140 0 -42 5 -54 34 -83 28 -28 42
-34 76 -34 82 0 130 54 130 147 0 55 -17 86 -60 108 -35 18 -77 19 -110 2z
m106 -48 c3 -6 1 -16 -5 -22 -9 -9 -14 -8 -21 3 -9 15 -4 30 10 30 5 0 12 -5
16 -11z"/>
<path d="M1284 711 c-45 -21 -87 -69 -106 -122 -6 -19 -25 -47 -41 -64 -69
-69 -87 -175 -42 -251 61 -103 290 -153 413 -90 38 20 80 70 88 104 3 15 8 33
10 40 7 23 -16 104 -39 136 -15 21 -22 47 -23 82 -3 81 -41 137 -116 169 -49
20 -94 19 -144 -4z m156 -30 c47 -25 80 -83 80 -144 0 -35 7 -58 27 -88 35
-53 42 -130 15 -179 -57 -105 -275 -121 -402 -29 -88 64 -92 168 -11 261 21
24 46 61 55 83 20 47 40 71 81 96 39 24 110 24 155 0z"/>
<path d="M1266 613 c-12 -12 -6 -33 9 -33 8 0 15 6 15 14 0 17 -14 28 -24 19z"/>
<path d="M1404 579 c-3 -6 -1 -16 5 -22 9 -9 14 -8 21 3 9 15 4 30 -10 30 -5
0 -12 -5 -16 -11z"/>
<path d="M1300 546 c0 -13 20 -26 41 -26 15 0 10 27 -7 34 -24 9 -34 7 -34 -8z"/>
</g>
</svg>
